<?xml version="1.0" standalone="no"?>
<!DOCTYPE svg PUBLIC "-//W3C//DTD SVG 20010904//EN"
 "http://www.w3.org/TR/2001/REC-SVG-20010904/DTD/svg10.dtd">
<svg version="1.0" xmlns="http://www.w3.org/2000/svg"
 width="101.000000pt" height="101.000000pt" viewBox="0 0 101.000000 101.000000"
 preserveAspectRatio="xMidYMid meet">
<metadata>
Created by potrace 1.11, written by Peter Selinger 2001-2013
</metadata>
<g transform="translate(0.000000,101.000000) scale(0.100000,-0.100000)"
fill="#000000" stroke="none">
<path d="M280 892 l-215 -107 0 -280 0 -280 217 -108 217 -108 218 108 218
108 0 280 0 280 -215 107 c-118 60 -217 108 -220 108 -3 0 -102 -48 -220 -108z
m395 -111 l140 -70 0 -205 0 -205 -157 -79 -157 -80 -158 79 -158 79 0 200 c0
138 4 203 12 211 6 6 76 44 155 84 105 52 148 70 163 64 11 -4 83 -39 160 -78z"/>
</g>
</svg>
